<svg xmlns="http://www.w3.org/2000/svg" viewBox="0 0 512 512">
  <defs>
    <linearGradient id="gold" x1="0%" y1="0%" x2="100%" y2="100%">
      <stop offset="0%" style="stop-color:#f5c842;stop-opacity:1" />
      <stop offset="100%" style="stop-color:#d4a534;stop-opacity:1" />
    </linearGradient>
    <radialGradient id="bg" cx="50%" cy="50%" r="50%" fx="50%" fy="50%">
      <stop offset="0%" style="stop-color:#1a1a2e;stop-opacity:1" />
      <stop offset="100%" style="stop-color:#07070f;stop-opacity:1" />
    </radialGradient>
  </defs>
  <rect width="512" height="512" fill="url(#bg)" rx="100" />
  <circle cx="256" cy="256" r="230" fill="none" stroke="url(#gold)" stroke-width="12" opacity="0.2" />
  <!-- Moon -->
  <path d="M360 256c0 88.366-71.634 160-160 160-88.366 0-160-71.634-160-160s71.634-160 160-160c-25.5 0-48.5 6-68 16 66.274 22.091 114 84.569 114 158 0 73.431-47.726 135.909-114 158 25.5 10 48.5 16 68 16 88.366 0 160-71.634 160-160z" fill="url(#gold)" />
  <!-- Play Button -->
  <path d="M280 256l-60-40v80z" fill="#07070f" />
  <!-- Star -->
  <path d="M380 140l10 30h30l-25 20 10 30-25-20-25 20 10-30-25-20h30z" fill="#fff" opacity="0.8" />
</svg>
